<svg xmlns="http://www.w3.org/2000/svg" xmlns:xlink="http://www.w3.org/1999/xlink" contentStyleType="text/css" height="431px" preserveAspectRatio="none" style="width:222px;height:431px;background:#FFFFFF;" version="1.1" viewBox="0 0 222 431" width="222px" zoomAndPan="magnify"><defs/><g><!--class Room--><g id="elem_Room"><rect codeLine="1" fill="#F1F1F1" height="196.9688" id="Room" rx="2.5" ry="2.5" style="stroke:#181818;stroke-width:0.5;" width="208.0752" x="7" y="7"/><ellipse cx="88.1152" cy="23" fill="#ADD1B2" rx="11" ry="11" style="stroke:#181818;stroke-width:1.0;"/><path d="M86.9746,23.7969 L86.9746,26.2969 L91.3027,26.2969 L91.3027,25.375 Q91.3027,24.7656 91.5371,24.5 Q91.7871,24.2344 92.1621,24.2344 Q92.5371,24.2344 92.7715,24.5 Q93.0059,24.7656 93.0059,25.375 L93.0059,28 L85.0059,28 Q84.3809,28 84.1152,27.7656 Q83.8652,27.5313 83.8652,27.1406 Q83.8652,26.7656 84.1309,26.5313 Q84.3965,26.2969 85.0059,26.2969 L85.2715,26.2969 L85.2715,19.6406 L85.0059,19.6406 Q84.3809,19.6406 84.1152,19.4063 Q83.8652,19.1719 83.8652,18.7813 Q83.8652,18.4063 84.1152,18.1719 Q84.3809,17.9375 85.0059,17.9375 L92.6309,17.9375 L92.6309,20.5313 Q92.6309,21.1406 92.3965,21.4063 Q92.1777,21.6563 91.7871,21.6563 Q91.4121,21.6563 91.1777,21.4063 Q90.9434,21.1406 90.9434,20.5313 L90.9434,19.6406 L86.9746,19.6406 L86.9746,22.0938 L88.459,22.0938 Q88.459,21.4375 88.584,21.25 Q88.8496,20.8438 89.3184,20.8438 Q89.6934,20.8438 89.9277,21.1094 Q90.1621,21.3594 90.1621,21.9688 L90.1621,23.9375 Q90.1621,24.4844 90.0371,24.6719 Q89.7715,25.0625 89.3184,25.0625 Q88.8496,25.0625 88.584,24.6563 Q88.459,24.4688 88.459,23.7969 L86.9746,23.7969 Z " fill="#000000"/><text fill="#000000" font-family="sans-serif" font-size="14" lengthAdjust="spacing" textLength="37.3447" x="108.6152" y="28.7969">Room</text><line style="stroke:#181818;stroke-width:0.5;" x1="8" x2="214.0752" y1="39" y2="39"/><ellipse cx="18" cy="53.8105" fill="none" rx="3" ry="3" style="stroke:#038048;stroke-width:1.0;"/><text fill="#000000" font-family="sans-serif" font-size="14" lengthAdjust="spacing" textLength="115.9102" x="27" y="58.1074">roomId : NUMBER</text><line style="stroke:#181818;stroke-width:1.0;" x1="8" x2="214.0752" y1="65.6211" y2="65.6211"/><text fill="#000000" font-family="sans-serif" font-size="14" lengthAdjust="spacing" textLength="178.958" x="27" y="84.7285">roomLabel : VARCHAR(255)</text><text fill="#000000" font-family="sans-serif" font-size="14" lengthAdjust="spacing" textLength="182.0479" x="27" y="103.3496">roomName : VARCHAR(255)</text><text fill="#000000" font-family="sans-serif" font-size="14" lengthAdjust="spacing" textLength="175.8271" x="27" y="121.9707">roomType : VARCHAR(255)</text><text fill="#000000" font-family="sans-serif" font-size="14" lengthAdjust="spacing" textLength="132.2549" x="27" y="140.5918">floor : VARCHAR(50)</text><text fill="#000000" font-family="sans-serif" font-size="14" lengthAdjust="spacing" textLength="152.4756" x="27" y="159.2129">corridor : VARCHAR(50)</text><rect fill="none" height="6" style="stroke:#C82930;stroke-width:1.0;" width="6" x="15" y="170.5371"/><text fill="#000000" font-family="sans-serif" font-size="14" lengthAdjust="spacing" textLength="171.1855" x="27" y="177.834">neighborsInside : NUMBER</text><rect fill="none" height="6" style="stroke:#C82930;stroke-width:1.0;" width="6" x="15" y="189.1582"/><text fill="#000000" font-family="sans-serif" font-size="14" lengthAdjust="spacing" textLength="182.0752" x="27" y="196.4551">neighborsOutside : NUMBER</text></g><!--class Sensor--><g id="elem_Sensor"><rect codeLine="13" fill="#F1F1F1" height="141.1055" id="Sensor" rx="2.5" ry="2.5" style="stroke:#181818;stroke-width:0.5;" width="187.0615" x="17.5" y="283"/><ellipse cx="84.6016" cy="299" fill="#ADD1B2" rx="11" ry="11" style="stroke:#181818;stroke-width:1.0;"/><path d="M83.4609,299.7969 L83.4609,302.2969 L87.7891,302.2969 L87.7891,301.375 Q87.7891,300.7656 88.0234,300.5 Q88.2734,300.2344 88.6484,300.2344 Q89.0234,300.2344 89.2578,300.5 Q89.4922,300.7656 89.4922,301.375 L89.4922,304 L81.4922,304 Q80.8672,304 80.6016,303.7656 Q80.3516,303.5313 80.3516,303.1406 Q80.3516,302.7656 80.6172,302.5313 Q80.8828,302.2969 81.4922,302.2969 L81.7578,302.2969 L81.7578,295.6406 L81.4922,295.6406 Q80.8672,295.6406 80.6016,295.4063 Q80.3516,295.1719 80.3516,294.7813 Q80.3516,294.4063 80.6016,294.1719 Q80.8672,293.9375 81.4922,293.9375 L89.1172,293.9375 L89.1172,296.5313 Q89.1172,297.1406 88.8828,297.4063 Q88.6641,297.6563 88.2734,297.6563 Q87.8984,297.6563 87.6641,297.4063 Q87.4297,297.1406 87.4297,296.5313 L87.4297,295.6406 L83.4609,295.6406 L83.4609,298.0938 L84.9453,298.0938 Q84.9453,297.4375 85.0703,297.25 Q85.3359,296.8438 85.8047,296.8438 Q86.1797,296.8438 86.4141,297.1094 Q86.6484,297.3594 86.6484,297.9688 L86.6484,299.9375 Q86.6484,300.4844 86.5234,300.6719 Q86.2578,301.0625 85.8047,301.0625 Q85.3359,301.0625 85.0703,300.6563 Q84.9453,300.4688 84.9453,299.7969 L83.4609,299.7969 Z " fill="#000000"/><text fill="#000000" font-family="sans-serif" font-size="14" lengthAdjust="spacing" textLength="44.3584" x="105.1016" y="304.7969">Sensor</text><line style="stroke:#181818;stroke-width:0.5;" x1="18.5" x2="203.5615" y1="315" y2="315"/><ellipse cx="28.5" cy="329.8105" fill="none" rx="3" ry="3" style="stroke:#038048;stroke-width:1.0;"/><text fill="#000000" font-family="sans-serif" font-size="14" lengthAdjust="spacing" textLength="126.0342" x="37.5" y="334.1074">sensorId : NUMBER</text><line style="stroke:#181818;stroke-width:1.0;" x1="18.5" x2="203.5615" y1="341.6211" y2="341.6211"/><text fill="#000000" font-family="sans-serif" font-size="14" lengthAdjust="spacing" textLength="131.4824" x="37.5" y="360.7285">type : VARCHAR(50)</text><text fill="#000000" font-family="sans-serif" font-size="14" lengthAdjust="spacing" textLength="142.3721" x="37.5" y="379.3496">status : VARCHAR(50)</text><text fill="#000000" font-family="sans-serif" font-size="14" lengthAdjust="spacing" textLength="161.0615" x="37.5" y="397.9707">location : VARCHAR(255)</text><rect fill="none" height="6" style="stroke:#C82930;stroke-width:1.0;" width="6" x="25.5" y="409.2949"/><text fill="#000000" font-family="sans-serif" font-size="14" lengthAdjust="spacing" textLength="115.9102" x="37.5" y="416.5918">roomId : NUMBER</text></g><!--link Room to Sensor--><g id="link_Room_Sensor"><path codeLine="22" d="M111,212.08 C111,238.37 111,240.28 111,264.72 " fill="none" id="Room-Sensor" style="stroke:#181818;stroke-width:1.0;"/><line style="stroke:#181818;stroke-width:1.0;" x1="107" x2="115" y1="208.08" y2="208.08"/><line style="stroke:#181818;stroke-width:1.0;" x1="107" x2="115" y1="211.08" y2="211.08"/><line style="stroke:#181818;stroke-width:1.0;" x1="111" x2="111" y1="212.08" y2="204.08"/><line style="stroke:#181818;stroke-width:1.0;" x1="111" x2="117" y1="274.72" y2="282.72"/><line style="stroke:#181818;stroke-width:1.0;" x1="111" x2="105" y1="274.72" y2="282.72"/><line style="stroke:#181818;stroke-width:1.0;" x1="111" x2="111" y1="274.72" y2="282.72"/><ellipse cx="111" cy="268.72" fill="none" rx="4" ry="4" style="stroke:#181818;stroke-width:1.0;"/><text fill="#000000" font-family="sans-serif" font-size="13" lengthAdjust="spacing" textLength="27.4536" x="112" y="249.0283">1 : N</text></g><!--SRC=[RP3B2i8m44Nt-OgXAui4LEYckog21QrG7_lKHWsq6KdIHMdzTzkes8Uxoxc1t3DS6c5AS6B4t06ceGrGaIce9eGf-12TTijrJ2WbBTgoX6SDFGVnQXF4auNdkRQ8MCx_yMFv6F5hXgWwq9kvv89AYNI4AKWkRlS4bGwb5YdlBFfL-yBqkoSX_ADsu5AZidBlQFMqZGD1qz_Q_gyDCuKUm0mlp0YKGoywkbgpmrwqhYd5wZl01sVUld5U]--></g></svg>