<?xml version="1.0" standalone="no"?>
<!DOCTYPE svg PUBLIC "-//W3C//DTD SVG 20010904//EN"
 "http://www.w3.org/TR/2001/REC-SVG-20010904/DTD/svg10.dtd">
<svg version="1.0" xmlns="http://www.w3.org/2000/svg"
 width="1024.000000pt" height="1024.000000pt" viewBox="0 0 1024.000000 1024.000000"
 preserveAspectRatio="xMidYMid meet">

<g transform="translate(0.000000,1024.000000) scale(0.100000,-0.100000)"
fill="#000000" stroke="none">
<path d="M1000 6405 l0 -3085 1123 0 1122 0 98 -104 97 -104 0 -1246 0 -1246
475 0 475 0 0 -150 0 -150 205 0 205 0 0 150 0 150 450 0 450 0 0 1910 0 1910
202 0 203 0 222 222 223 223 0 157 0 158 1490 0 1490 0 0 605 0 605 270 0 270
0 0 490 0 490 -1154 0 -1154 0 -27 35 c-15 18 -41 37 -56 40 l-29 7 0 1009 0
1009 -3325 0 -3325 0 0 -3085z m900 2985 c0 -38 2 -40 30 -40 28 0 30 2 30 40
l0 40 1810 0 1810 0 0 -850 0 -850 -1400 -2 -1400 -3 0 -1177 0 -1178 -860 0
-860 0 0 2030 0 2030 420 0 420 0 0 -40z m5690 -945 l0 -985 -83 0 c-82 0 -84
-1 -117 -35 -19 -19 -38 -35 -42 -35 -4 0 -30 16 -57 35 l-48 35 -802 0 -801
0 0 985 0 985 975 0 975 0 0 -985z m-2010 -1465 l0 -680 -238 0 -238 0 -284
-291 c-157 -159 -288 -298 -292 -307 -4 -9 -7 -88 -7 -174 l-1 -158 -840 0
-840 0 0 1145 0 1145 1370 0 1370 0 0 -680z m860 45 l0 -375 -400 0 -400 0 0
375 0 375 400 0 400 0 0 -375z m630 222 l0 -152 -83 -83 -83 -83 -82 -1 -82 0
0 -34 0 -34 88 0 87 0 265 270 265 271 115 -1 116 0 53 -54 54 -55 -2 -113 -2
-113 -264 -265 -265 -265 0 -63 0 -62 35 0 35 0 0 57 0 58 127 127 128 128
102 0 103 0 0 -155 0 -155 -165 0 -165 0 0 -30 0 -30 1005 0 1005 0 0 -155 0
-155 -1275 0 -1275 0 0 -420 0 -420 -180 0 -180 0 0 211 0 210 28 -3 c24 -3
27 1 30 30 2 22 -1 32 -11 32 -8 0 -35 3 -61 6 l-46 7 0 -430 0 -431 -40 -36
c-22 -20 -44 -36 -49 -36 -4 0 -98 90 -207 200 l-199 200 -20 -21 -20 -20 203
-200 c111 -110 202 -203 202 -207 0 -4 -62 -66 -137 -139 l-138 -132 -75 0
-75 0 -162 168 c-154 161 -163 168 -178 150 -16 -17 -13 -23 61 -106 43 -48
105 -115 138 -148 l61 -60 -347 -3 c-268 -2 -348 -5 -349 -15 0 -6 0 -59 0
-117 l0 -105 30 -3 31 -3 0 90 0 91 205 0 205 0 0 -237 0 -238 -205 3 -205 3
0 94 0 95 -32 0 -33 0 0 -92 c0 -51 -3 -94 -7 -95 -5 -2 -84 -3 -178 -3 l-170
0 0 93 0 92 -30 0 -30 0 0 -286 0 -287 30 -4 30 -5 0 164 0 163 420 0 420 0 0
-365 0 -365 -420 0 -420 0 0 149 0 149 -30 4 -30 5 0 -1399 0 -1399 -141 3
-141 3 2 193 1 192 -36 0 -35 0 0 -195 0 -195 -440 0 -440 0 0 375 0 375 440
0 440 0 0 -125 0 -125 30 0 30 0 0 250 0 250 -30 0 -30 0 0 -95 0 -95 -440 0
-440 0 0 390 0 390 440 0 440 0 0 -245 0 -245 30 0 30 0 0 365 0 365 -30 0
-30 0 0 -90 0 -90 -440 0 -440 0 0 390 0 390 440 0 440 0 0 -250 0 -250 30 0
30 0 0 375 0 375 -30 0 -30 0 0 -95 0 -95 -292 0 -293 0 250 250 c248 248 250
250 293 250 l42 0 0 -105 0 -105 30 0 30 0 0 135 0 135 -83 0 -82 0 -280 -280
-280 -280 -113 0 c-134 0 -147 5 -225 90 -57 61 -57 62 -57 123 l0 62 320 320
320 320 0 77 0 78 -35 0 -35 0 0 -71 0 -70 -290 -292 -290 -291 0 467 0 467
363 0 c199 0 413 3 475 7 l112 6 0 -51 c0 -51 1 -52 30 -52 l30 0 0 470 0 470
235 0 235 0 0 -305 0 -305 32 0 31 0 -6 299 -7 300 40 50 c22 28 43 51 45 51
3 0 23 -21 47 -46 23 -25 70 -68 106 -96 l64 -51 20 21 21 21 -34 27 c-37 30
-179 176 -179 184 0 3 84 86 187 185 l186 180 31 -40 c17 -22 59 -69 93 -105
l62 -65 20 20 20 20 -94 99 c-52 55 -95 102 -95 106 0 3 52 55 116 115 72 67
118 104 123 97 5 -8 81 -12 251 -12 225 -1 244 0 254 17 7 11 12 114 14 271
l4 252 143 0 144 0 3 -57 c3 -56 4 -57 33 -57 l30 0 3 462 2 462 280 0 280 0
0 -153z m198 131 c23 -13 42 -25 42 -28 0 -3 -40 -46 -90 -95 l-90 -90 0 118
0 117 48 0 c30 0 63 -8 90 -22z m1312 -478 l0 -430 -370 0 -370 0 0 185 0 185
-102 0 -103 0 103 103 102 102 0 143 0 142 370 0 370 0 0 -430z m1425 0 l0
-430 -682 0 -683 0 0 430 0 430 683 0 682 0 0 -430z m-3922 -551 c0 -132 -3
-243 -6 -245 -3 -3 -102 -2 -221 2 l-216 7 0 239 0 238 223 0 222 0 -2 -241z
m-503 -166 l0 -68 -114 -107 c-63 -60 -117 -108 -119 -108 -9 0 -207 327 -207
341 0 2 99 5 220 7 l220 3 0 -68z m-372 -177 l95 -158 -178 -178 -177 -177
-132 67 c-112 57 -207 111 -226 127 -2 2 110 118 250 258 212 213 256 252 263
237 5 -9 52 -88 105 -176z m2572 -356 l0 -390 -400 0 -400 0 0 390 0 390 400
0 400 0 0 -390z m800 0 l0 -390 -370 0 -370 0 0 390 0 390 370 0 370 0 0 -390z
m880 0 l0 -390 -410 0 -410 0 0 390 0 390 410 0 410 0 0 -390z m-4551 -200 c1
-3 -13 -22 -30 -43 l-30 -37 -135 0 -134 0 0 125 0 126 164 -83 c90 -46 165
-85 165 -88z m-639 -536 c-1 -291 -4 -386 -13 -389 -7 -2 -220 -6 -474 -10
l-463 -6 0 395 0 396 468 2 c257 2 470 2 475 0 4 -2 7 -177 7 -388z m-1010
-574 l0 -960 -1100 0 -1100 0 0 960 0 960 1100 0 1100 0 0 -960z m1998 -1229
l382 -1 0 -390 0 -390 -420 0 -420 0 0 393 0 392 38 -1 c20 -1 209 -2 420 -3z
m382 -1231 l0 -390 -420 0 -420 0 0 390 0 390 420 0 420 0 0 -390z m0 -825 l0
-375 -420 0 -420 0 0 375 0 375 420 0 420 0 0 -375z m-900 -552 l0 -118 -145
3 -145 3 0 115 0 114 145 0 145 0 0 -117z"/>
<path d="M1940 6996 l0 -1546 30 0 30 0 0 1515 0 1515 1750 0 1750 0 0 28 0
29 -1780 2 -1780 2 0 -1545z"/>
<path d="M6580 8451 l0 -889 33 1 32 2 3 888 2 887 -35 0 -35 0 0 -889z"/>
<path d="M1140 4340 l0 -30 1010 0 1010 0 0 30 0 30 -1010 0 -1010 0 0 -30z"/>
</g>
</svg>
