<?xml version="1.0" standalone="no"?>
<!DOCTYPE svg PUBLIC "-//W3C//DTD SVG 20010904//EN"
 "http://www.w3.org/TR/2001/REC-SVG-20010904/DTD/svg10.dtd">
<svg version="1.0" xmlns="http://www.w3.org/2000/svg"
 width="1024.000000pt" height="1024.000000pt" viewBox="0 0 1024.000000 1024.000000"
 preserveAspectRatio="xMidYMid meet">

<g transform="translate(0.000000,1024.000000) scale(0.100000,-0.100000)"
fill="#000000" stroke="none">
<path d="M6187 9463 c-4 -3 -7 -672 -7 -1485 l0 -1478 -262 0 -262 0 -353
-352 -353 -352 0 -86 c0 -47 -3 -149 -7 -227 l-6 -143 -1962 0 c-1512 0 -1964
-3 -1973 -12 -9 -9 -12 -116 -12 -419 0 -224 3 -414 6 -423 5 -13 23 -16 95
-16 l89 0 0 -135 0 -134 -87 -3 -88 -3 -3 -427 -2 -428 1281 0 1281 0 96 -94
c102 -101 111 -105 146 -54 15 20 16 -37 16 -627 0 -358 2 -711 4 -785 2 -74
5 -345 5 -602 l1 -468 373 0 372 0 -3 -50 c-6 -79 -3 -80 168 -80 82 0 155 3
164 6 12 5 16 21 16 65 l0 59 359 0 c229 0 362 4 366 10 3 5 6 840 6 1855 l-1
1845 388 0 387 0 274 -274 c173 -173 279 -272 288 -269 8 3 13 11 11 19 -2 7
-122 133 -267 279 l-263 267 271 272 271 272 0 242 0 242 1443 2 1442 3 0 420
0 420 -85 5 c-59 3 -85 9 -84 18 1 6 2 66 3 132 l1 119 83 3 82 3 0 430 0 430
-767 5 -767 5 -61 60 -60 59 -2 941 -3 940 -1021 3 c-561 1 -1024 -1 -1027 -5z
m893 -483 c19 0 20 7 20 218 0 120 2 221 4 223 2 2 54 3 115 1 l111 -3 0 -220
c0 -218 0 -220 21 -217 20 3 21 7 19 221 l-1 217 416 0 415 0 -1 -512 c-1
-282 -4 -622 -6 -756 l-5 -242 -407 2 c-398 3 -406 3 -407 23 0 11 -1 84 -2
163 -2 135 -3 142 -22 142 -20 0 -20 -5 -18 -257 3 -222 5 -258 18 -258 11 0
16 17 20 70 l5 70 408 0 408 0 0 -135 0 -135 -70 -5 -71 -5 -177 -177 -178
-177 -158 -2 -158 -1 -4 194 c-4 185 -5 193 -25 196 -20 3 -20 1 -20 -362 0
-360 0 -365 21 -371 11 -4 32 -4 47 0 17 4 146 126 348 331 l322 324 78 0 78
0 53 -52 53 -52 0 -76 0 -75 -162 -161 c-376 -372 -490 -492 -486 -510 3 -18
39 -19 1001 -22 l997 -2 0 -135 0 -135 -1152 -2 -1153 -3 -3 -248 -2 -248 -65
2 c-65 2 -94 -9 -81 -30 4 -6 37 -11 77 -11 l69 0 0 -130 0 -130 -164 0 c-90
0 -171 -3 -180 -6 -14 -5 -16 10 -16 129 l0 136 53 3 c38 2 52 7 52 18 0 11
-16 16 -63 20 -35 3 -70 1 -78 -3 -12 -7 -14 -72 -14 -415 l0 -407 -264 -264
-263 -263 -412 -6 -411 -5 0 -178 0 -178 -122 -3 c-108 -3 -123 -5 -126 -20
-3 -16 8 -18 122 -18 l126 0 0 -385 0 -385 -345 0 -345 0 0 235 0 234 123 3
122 3 0 142 0 143 36 0 c40 0 69 24 52 41 -6 6 -37 9 -69 7 l-59 -3 -3 -148
-3 -147 -119 0 -120 0 0 -395 c0 -388 0 -395 20 -395 19 0 20 7 20 115 l0 115
345 0 345 0 0 -325 0 -325 -342 2 -343 3 -5 155 c-4 129 -8 155 -20 155 -13 0
-15 -39 -18 -282 -2 -278 -2 -283 18 -283 19 0 20 6 20 105 l0 105 345 0 345
0 0 -350 0 -350 -345 0 -345 0 -2 193 c-3 163 -5 192 -18 192 -13 0 -15 -52
-15 -405 0 -353 2 -405 15 -405 13 0 15 29 18 188 l2 187 345 0 345 0 0 -520
0 -520 -345 0 -345 0 0 280 c0 272 -1 280 -20 280 -18 0 -20 -8 -22 -137 l-3
-138 -127 -3 -128 -3 0 159 c0 133 -3 162 -16 173 -13 10 -17 10 -25 -2 -5 -8
-9 -148 -9 -311 l0 -298 -350 0 -350 0 2 523 3 522 348 3 347 3 0 -159 c0
-118 3 -162 13 -170 35 -29 37 -3 35 339 -3 326 -3 334 -23 334 -19 0 -20 -8
-23 -152 l-3 -153 -349 0 -350 0 0 350 0 350 350 0 349 0 3 -142 c3 -135 4
-143 23 -143 20 0 20 7 20 295 0 288 0 295 -20 295 -19 0 -20 -8 -23 -127 l-3
-128 -349 0 -350 0 0 326 c0 293 2 326 16 320 9 -3 166 -6 350 -6 l334 0 0
-134 c0 -103 3 -135 13 -139 34 -13 37 6 35 209 -3 191 -4 199 -23 199 -16 0
-21 -8 -23 -42 l-3 -43 -331 0 -331 0 79 82 c116 122 584 584 584 578 0 -3 2
-106 3 -230 2 -218 3 -225 22 -225 19 0 20 7 20 265 0 252 -1 265 -19 268 -14
3 -129 -106 -430 -407 l-411 -411 -65 65 -65 65 413 413 c232 232 412 420 412
430 0 16 -13 17 -162 15 -137 -3 -163 -5 -163 -18 0 -12 22 -15 123 -18 67 -1
122 -6 122 -10 0 -4 -172 -178 -383 -388 l-382 -381 -45 4 -46 5 -2 384 -3
384 253 2 c217 3 253 5 253 18 0 13 -39 16 -270 20 -148 3 -280 4 -292 2 -28
-4 -30 -32 -3 -39 20 -5 20 -14 20 -389 l0 -384 -362 0 -363 0 3 385 2 385
285 0 c278 0 285 0 285 20 0 20 -7 20 -1050 20 l-1050 0 0 135 0 135 313 1
c171 1 454 0 627 0 181 -1 321 2 329 8 8 5 11 16 8 25 -6 14 -42 16 -322 16
l-315 0 0 385 0 385 380 0 380 0 0 -405 0 -405 343 2 c296 3 342 5 342 18 0
13 -43 15 -318 18 l-317 2 0 385 0 385 383 0 382 0 -3 -403 -2 -404 281 -6
c290 -7 325 -4 298 29 -9 11 -64 14 -270 14 l-259 0 0 385 0 385 380 0 380 0
0 -385 0 -384 -57 -3 c-50 -3 -58 -6 -58 -23 0 -20 7 -20 310 -20 269 0 310 2
310 15 0 13 -34 15 -232 18 l-233 2 0 390 0 390 330 0 330 0 0 -380 c0 -209 1
-383 3 -387 1 -5 -18 -10 -43 -13 -31 -3 -45 -10 -45 -20 0 -12 15 -16 68 -18
l67 -3 0 166 0 165 60 0 c53 0 60 2 60 20 0 18 -7 20 -60 20 l-60 0 0 225 0
225 175 0 175 0 0 -225 0 -225 -60 0 c-53 0 -60 -2 -60 -20 0 -18 7 -20 73
-20 l72 0 199 199 c181 181 212 221 173 221 -6 0 -89 -78 -184 -172 l-173
-173 0 340 0 339 282 283 283 283 335 0 335 0 -209 -209 c-191 -191 -222 -231
-183 -231 7 0 115 103 240 228 l228 228 -3 109 c-3 102 -4 110 -23 110 -18 0
-20 -8 -23 -98 l-3 -97 -204 2 c-113 2 -205 6 -205 11 0 4 0 111 0 237 l0 230
205 0 204 0 3 -87 c3 -80 5 -88 23 -88 18 0 20 8 23 88 l3 87 203 0 c155 0
205 3 207 13 2 6 3 90 1 185 -3 162 -4 172 -23 172 -18 0 -19 -8 -19 -160 l0
-160 -417 0 -418 0 3 325 3 325 414 0 414 0 3 -112 c3 -98 5 -113 21 -116 16
-3 17 14 17 248 0 234 -1 251 -17 248 -16 -3 -18 -18 -21 -111 l-3 -107 -414
0 -415 0 0 320 0 320 415 0 414 0 3 -157 c3 -141 5 -158 21 -161 16 -3 17 14
17 257 0 254 -1 261 -20 261 -18 0 -20 -7 -20 -74 l0 -73 -31 -7 c-17 -3 -204
-6 -415 -6 l-384 0 0 315 0 315 415 0 415 0 0 -180 c0 -173 1 -180 20 -180 11
0 20 3 20 8 1 24 1 500 1 515 -1 10 -9 17 -21 17 -18 0 -20 -7 -20 -65 l0 -65
-415 0 -415 0 0 335 0 335 413 2 412 3 3 -222 c2 -215 3 -223 22 -223z m2770
-1952 l0 -393 -97 1 c-54 1 -441 2 -860 3 l-763 1 0 193 0 192 120 120 120
120 0 77 0 78 740 0 740 0 0 -392z m-2325 27 c-71 -68 -133 -124 -137 -125 -7
0 -10 81 -10 220 0 11 0 22 1 25 1 3 63 5 139 5 l137 0 -130 -125z m555 -245
l0 -169 -160 -3 c-88 -2 -160 1 -160 6 0 6 305 329 318 335 1 0 2 -75 2 -169z
m-1900 -505 l0 -145 -129 0 -128 0 -292 -292 -291 -293 0 -117 0 -118 -175 0
-175 0 0 218 0 219 343 339 344 339 251 -3 252 -3 0 -144z m1978 -407 l2 -378
-375 0 -375 0 0 373 c0 206 3 377 7 380 4 4 171 6 372 5 l366 -3 3 -377z m792
2 l0 -380 -371 -2 c-204 -2 -373 -1 -375 1 -2 2 -4 175 -4 383 l0 378 375 0
375 0 0 -380z m900 0 l0 -380 -430 0 -430 0 0 373 c0 206 3 377 7 380 3 4 197
7 430 7 l423 0 0 -380z m-8030 -995 l0 -385 -337 -1 c-186 -1 -362 -2 -390 -3
l-53 -1 0 388 0 387 390 0 390 0 0 -385z m120 -1130 l0 -385 -167 -1 c-93 0
-295 -2 -450 -3 l-283 -1 0 382 0 382 83 4 c45 1 247 4 450 5 l367 2 0 -385z
m760 0 l0 -385 -360 0 -360 0 0 385 0 385 360 0 360 0 0 -385z m2180 -2960 l0
-185 -130 0 -130 0 0 185 0 185 130 0 130 0 0 -185z"/>
<path d="M7330 8610 c0 -263 0 -270 20 -270 20 0 20 7 20 270 0 263 0 270 -20
270 -20 0 -20 -7 -20 -270z"/>
<path d="M6562 5317 c-15 -17 1 -42 23 -33 18 6 17 37 -1 43 -6 2 -16 -2 -22
-10z"/>
<path d="M6071 4796 c-9 -10 -8 -16 4 -26 19 -15 47 3 38 26 -7 18 -27 18 -42
0z"/>
<path d="M1000 7405 l0 -2045 590 0 590 0 0 1455 0 1455 1978 2 1977 3 3 588
2 587 -2570 0 -2570 0 0 -2045z m5090 1460 l0 -545 -1977 -2 -1978 -3 -3
-1457 -2 -1458 -545 0 -545 0 0 2005 0 2005 2525 0 2525 0 0 -545z"/>
</g>
</svg>
