<?xml version="1.0" standalone="no"?>
<!DOCTYPE svg PUBLIC "-//W3C//DTD SVG 20010904//EN"
 "http://www.w3.org/TR/2001/REC-SVG-20010904/DTD/svg10.dtd">
<svg version="1.0" xmlns="http://www.w3.org/2000/svg"
 width="1024.000000pt" height="1024.000000pt" viewBox="0 0 1024.000000 1024.000000"
 preserveAspectRatio="xMidYMid meet">

<g transform="translate(0.000000,1024.000000) scale(0.100000,-0.100000)"
fill="#000000" stroke="none">
<path d="M3438 8533 l-78 -4 0 -217 c0 -119 -3 -452 -7 -739 l-6 -523 227 0
228 0 -4 -135 -3 -135 108 0 107 0 69 73 c37 39 109 120 159 179 l91 107 0
248 c0 136 4 446 7 689 l7 441 -194 6 c-285 10 -623 15 -711 10z m371 -167
l-1 -146 -209 0 -209 0 0 143 0 142 210 4 211 3 -2 -146z m394 128 l107 -6 0
-199 0 -199 -240 0 -240 0 0 211 0 211 133 -6 c72 -3 180 -9 240 -12z m-393
-549 l0 -245 -172 1 c-95 0 -191 3 -213 7 l-39 7 1 180 c1 99 2 206 3 238 l0
57 210 0 210 0 0 -245z m298 115 l203 0 -3 -132 -3 -133 -235 1 -235 1 -3 138
-3 138 38 -7 c21 -3 129 -6 241 -6z m200 -457 l2 -163 -240 0 -240 0 0 160 0
160 213 3 c116 1 223 3 237 2 l25 0 3 -162z m-655 70 l158 -6 -2 -293 -3 -292
-205 -4 c-113 -2 -209 -2 -213 0 -5 2 -8 138 -8 303 l0 299 58 0 c31 0 128 -3
215 -7z m654 -392 c-2 -71 -8 -135 -12 -142 -5 -8 -40 -49 -78 -91 l-69 -78
-166 0 -165 0 6 98 c4 53 7 152 7 220 l0 122 241 0 241 0 -5 -129z m-252 -406
l-67 -75 -84 0 -84 0 0 75 0 75 151 0 151 0 -67 -75z"/>
<path d="M830 8509 c-393 -3 -716 -6 -718 -7 -2 -1 -1 -823 3 -1827 l6 -1825
-60 0 c-48 0 -61 -3 -61 -15 0 -13 25 -15 166 -15 l167 0 -6 -35 -6 -35 284 0
283 0 -5 1468 -5 1467 -84 0 -84 0 0 168 0 167 40 0 40 0 0 -90 0 -90 758 6
c416 3 955 9 1197 14 242 5 455 7 473 4 l32 -5 0 331 0 331 -852 -3 c-469 -2
-1175 -5 -1568 -9z m1248 -321 l2 -308 -310 0 -310 0 0 305 0 305 263 3 c144
1 282 3 307 2 l45 0 3 -307z m644 -2 l-3 -306 -309 0 -310 0 0 305 0 305 308
2 c169 2 309 2 312 1 3 0 4 -139 2 -307z m508 9 l0 -302 -237 -6 c-131 -3
-238 -5 -239 -4 -1 1 -6 138 -10 304 l-7 302 159 4 c87 2 198 3 247 3 l87 0 0
-301z m-2450 106 c0 -104 3 -203 6 -220 l7 -31 -61 0 -60 0 1 -192 2 -193 93
-3 92 -3 0 -59 0 -60 -360 0 -360 0 2 468 3 467 225 3 c223 2 373 6 398 10 9
2 12 -41 12 -187z m648 -118 l-3 -308 -301 -3 -301 -3 -6 188 c-4 103 -7 243
-7 311 l0 122 310 0 310 0 -2 -307z m-568 -993 l0 -320 -360 0 -360 0 0 320 0
320 360 0 360 0 0 -320z m0 -670 l0 -320 -360 0 -360 0 0 320 0 320 360 0 360
0 0 -320z m0 -665 l0 -325 -360 -2 -360 -3 0 328 0 327 360 0 360 0 0 -325z
m-2 -712 l2 -363 -217 0 c-120 0 -235 -3 -255 -6 l-36 -6 5 41 6 41 -105 0
-105 0 -6 143 c-4 78 -7 224 -7 324 l0 182 93 3 c50 2 211 3 357 3 l265 0 3
-362z"/>
<path d="M6208 7723 l-88 -4 0 -674 0 -675 -191 0 -191 0 2 38 c1 20 2 166 1
325 l-1 287 -587 0 -588 0 -146 -163 c-81 -89 -229 -247 -329 -350 -100 -103
-180 -190 -177 -194 7 -7 159 130 236 213 30 33 144 150 253 262 153 156 204
202 223 202 l25 0 0 -172 c0 -95 3 -210 7 -255 l6 -83 -36 0 c-69 0 -67 5 -67
-176 l0 -164 -177 0 -178 0 2 -280 3 -280 -410 0 -410 0 0 -241 0 -241 -42 4
c-33 2 -43 -1 -43 -12 0 -12 21 -16 113 -18 l112 -3 0 -32 c0 -29 12 -44 103
-125 56 -50 120 -104 142 -121 22 -16 56 -43 75 -60 l35 -30 -137 -137 -138
-137 -52 49 c-29 27 -92 82 -140 122 l-87 72 -198 -2 -198 -3 3 -33 c2 -18 1
-46 -3 -62 l-7 -30 -234 0 -234 0 -1 -252 c0 -139 -3 -262 -5 -273 -7 -27 -6
-359 2 -793 l7 -363 -23 -6 c-22 -6 -22 -6 -19 -177 2 -94 3 -280 1 -413 l-2
-243 -70 0 -70 0 0 1185 0 1185 -54 0 c-68 0 -87 7 -79 28 8 23 21 35 -264
-251 l-253 -252 0 -951 0 -951 137 -6 c75 -4 195 -7 267 -7 72 0 188 -3 259
-7 l127 -6 0 -74 0 -73 268 0 269 0 1 1402 1 1403 174 3 174 2 99 -81 c54 -44
123 -104 152 -132 l54 -52 153 159 152 159 -66 60 c-36 33 -82 70 -101 82 -19
13 -70 56 -114 96 -75 70 -78 76 -78 117 0 23 -3 42 -9 42 -5 0 -9 92 -9 225
l0 225 1073 0 1072 0 0 282 0 283 118 0 c89 0 117 3 115 12 -2 10 -147 13
-665 15 l-663 3 0 98 0 97 780 0 780 0 0 125 0 125 50 0 50 0 0 -229 0 -230
-90 6 c-79 5 -90 4 -90 -11 0 -13 13 -16 85 -17 47 -1 91 -2 98 -3 9 -1 13
-64 17 -266 4 -203 8 -265 18 -264 6 1 411 2 899 3 l886 1 -7 215 -6 215 170
0 170 0 0 55 0 54 712 1 c391 0 714 3 717 6 3 3 7 136 9 295 l3 289 128 0 c71
0 143 3 160 6 l31 7 0 503 0 504 -980 0 -980 0 0 -811 0 -812 86 6 85 6 -3
-42 -3 -42 -152 -1 -153 0 0 38 c0 25 4 37 13 36 9 -2 13 48 18 212 4 118 8
235 10 260 l4 45 -429 0 -430 0 3 -242 3 -243 -69 0 c-37 -1 -112 -2 -166 -3
l-97 -2 0 249 0 248 -385 -3 -385 -4 0 32 0 33 970 0 c768 0 971 3 974 13 3 6
7 240 10 520 l6 507 -907 -2 c-500 -1 -947 -4 -995 -5z m1879 -165 c-4 -79 -7
-299 -7 -490 l0 -348 -965 0 -965 0 0 484 0 485 43 4 c23 2 460 4 971 5 l929
2 -6 -142z m2043 -337 l0 -478 -187 -7 c-104 -3 -530 -9 -949 -12 l-761 -7 -6
129 c-4 71 -7 292 -7 492 l0 362 955 0 955 0 0 -479z m-4418 -541 l3 -310
-562 0 -563 0 0 40 0 40 48 0 47 0 -3 270 -3 270 515 0 515 0 3 -310z m4098
-144 l0 -166 -60 0 -60 0 0 130 0 129 -220 3 -220 3 0 -175 c0 -96 -3 -205 -7
-242 -6 -67 -6 -68 -34 -68 l-29 0 0 240 0 240 -475 0 -475 0 0 34 0 33 790 2
790 2 0 -165z m-140 -67 l0 -129 70 0 70 0 0 -95 0 -95 -270 0 -270 0 0 128
c0 70 3 171 7 224 l6 98 186 2 c102 2 189 2 194 0 4 -2 7 -61 7 -133z m-2780
-104 l0 -235 -305 0 -305 0 0 228 c0 126 3 232 7 235 3 4 141 7 305 7 l298 0
0 -235z m885 5 l1 -230 -253 0 -253 0 0 223 c0 123 3 227 7 230 3 4 117 7 252
7 l246 0 0 -230z m293 3 l-3 -228 -129 -3 c-97 -2 -131 1 -138 10 -9 15 -11
392 -2 426 6 21 10 22 140 22 l134 0 -2 -227z m1082 2 l0 -225 -444 0 c-244 0
-451 -3 -460 -6 -14 -5 -16 18 -16 225 l0 231 460 0 460 0 0 -225z m-4002
-522 l-3 -268 -277 -3 -278 -2 0 264 0 265 68 4 c37 2 163 4 280 5 l212 2 -2
-267z m512 -3 l0 -270 -245 0 -245 0 0 270 0 270 245 0 245 0 0 -270z m-1100
-5 l0 -265 -165 0 -165 0 0 265 0 265 165 0 165 0 0 -265z m2228 8 l2 -253
-243 0 -244 0 -5 170 c-3 94 -3 208 0 255 l5 85 241 -2 241 -3 3 -252z m302
25 c0 -128 -3 -243 -6 -255 -6 -22 -10 -23 -134 -23 l-127 0 -6 122 c-4 66 -7
181 -7 255 l0 133 140 0 140 0 0 -232z m400 108 l0 -124 -185 -1 -185 -2 0
125 0 126 185 0 185 0 0 -124z m548 2 l3 -118 -261 0 -260 0 0 120 0 120 258
-2 257 -3 3 -117z m2 -268 l0 -120 -460 0 -460 0 0 120 0 120 460 0 460 0 0
-120z m-4524 -222 c-3 -29 -6 -131 -6 -225 l0 -173 -50 0 -50 0 0 225 0 225
56 0 57 0 -7 -52z m-586 -1278 l0 -290 -197 0 c-109 0 -208 3 -220 6 -22 6
-22 6 -25 286 -2 154 -1 282 1 284 2 2 103 4 223 4 l218 0 0 -290z m-680 -36
l0 -186 -251 4 -251 3 133 125 c74 68 159 150 189 181 l55 58 63 0 62 1 0
-186z m-2 -209 c8 -3 12 -33 12 -100 l0 -95 -301 2 -300 3 -3 57 c-3 55 -1 58
38 96 23 22 47 41 53 43 18 5 485 0 501 -6z m682 -370 l0 -295 -225 0 -225 0
0 295 0 295 225 0 225 0 0 -295z m-670 -103 l0 -259 -152 -6 c-83 -4 -220 -7
-305 -7 l-154 0 6 258 c3 141 5 260 5 265 0 4 135 7 300 7 l300 0 0 -258z
m670 -437 l0 -215 -222 0 -223 0 3 215 3 215 219 0 220 0 0 -215z m-673 18
c-4 -71 -7 -183 -7 -250 l0 -123 -300 0 -300 0 0 250 0 250 307 0 306 0 -6
-127z m678 -436 c4 -95 6 -182 4 -192 -4 -19 -15 -20 -204 -23 -110 -2 -218 0
-240 3 l-40 5 -2 190 -2 190 238 0 239 0 7 -173z m-685 -287 l0 -320 -172 0
c-95 0 -229 -3 -298 -6 l-125 -7 -4 327 -3 326 301 0 301 0 0 -320z m687 -132
c-4 -99 -7 -223 -7 -275 l0 -93 -240 0 -240 0 0 275 0 275 247 0 246 0 -6
-182z"/>
<path d="M1120 6570 l0 -1100 665 0 665 0 0 168 0 168 233 237 232 238 160 6
c88 3 161 6 161 7 1 0 5 310 9 689 l7 687 -1066 0 -1066 0 0 -1100z m2097 723
c-4 -197 -7 -498 -7 -669 l0 -311 -151 -6 -152 -6 -111 -108 c-61 -59 -171
-166 -244 -236 l-132 -129 0 -164 0 -164 -379 0 c-208 0 -393 -3 -410 -6 l-31
-6 0 821 0 821 -225 0 -225 0 0 255 0 255 938 2 c515 2 982 4 1036 6 l99 3 -6
-358z m-1637 -518 l0 -325 -215 0 -215 0 0 325 0 325 215 0 215 0 0 -325z m-3
-657 l-2 -303 -212 -3 -213 -2 0 305 0 305 214 0 214 0 -1 -302z m3 -478 l0
-150 -215 0 -215 0 0 145 0 144 93 4 c50 1 147 4 215 5 l122 2 0 -150z"/>
<path d="M2809 5981 c-107 -103 -204 -193 -214 -199 -23 -12 -33 -101 -34
-302 l-1 -115 -756 -2 c-416 -1 -758 -4 -760 -6 -2 -1 -4 -138 -6 -304 l-3
-301 165 -7 c91 -5 323 -5 515 -1 193 5 380 7 418 6 l67 -1 0 67 0 67 75 -5
75 -5 0 228 0 228 118 3 117 3 13 210 c19 295 9 290 197 107 80 -78 150 -142
155 -142 26 0 -3 35 -130 155 -75 72 -137 133 -136 137 1 5 72 82 159 173
l158 165 176 2 c130 2 177 6 181 16 3 9 -36 12 -175 11 l-178 0 -196 -188z
m-769 -929 l0 -282 -487 2 -488 3 -3 280 -2 280 490 0 490 0 0 -283z m280 68
l0 -210 -75 0 -75 0 0 -70 0 -70 -50 0 -50 0 0 280 0 280 125 0 125 0 0 -210z"/>
<path d="M0 4561 c0 -19 6 -21 60 -21 l61 0 -1 -292 -1 -293 698 -3 698 -2
293 296 c189 190 292 301 288 310 -5 12 -80 14 -488 14 -266 1 -736 3 -1045 6
l-563 5 0 -20z m2015 -73 c-221 -232 -466 -472 -499 -489 -44 -23 -209 -39
-219 -21 -4 5 -4 134 0 286 l6 276 351 3 c193 1 367 3 386 5 l34 2 -59 -62z
m-1017 -230 l-3 -283 -422 -2 -423 -2 0 285 0 284 425 0 425 0 -2 -282z m278
245 c-3 -21 -6 -150 -6 -286 l0 -248 -122 3 c-120 3 -123 3 -122 26 0 12 1
139 2 282 l2 260 126 0 127 0 -7 -37z"/>
</g>
</svg>
