<?xml version="1.0" standalone="no"?>
<!DOCTYPE svg PUBLIC "-//W3C//DTD SVG 20010904//EN"
 "http://www.w3.org/TR/2001/REC-SVG-20010904/DTD/svg10.dtd">
<svg version="1.0" xmlns="http://www.w3.org/2000/svg"
 width="1024.000000pt" height="1024.000000pt" viewBox="0 0 1024.000000 1024.000000"
 preserveAspectRatio="xMidYMid meet">

<g transform="translate(0.000000,1024.000000) scale(0.100000,-0.100000)"
fill="#000000" stroke="none">
<path d="M557 9593 c-4 -3 -7 -1054 -7 -2335 l0 -2328 -260 0 -260 0 0 -224
c0 -170 3 -225 12 -228 7 -2 124 -3 260 -2 l248 2 2 -386 3 -387 873 -5 872
-5 -85 -85 c-47 -46 -85 -90 -85 -97 0 -12 163 -175 182 -182 6 -2 59 45 119
105 l109 109 0 -1348 0 -1347 813 2 812 3 3 823 2 822 -95 0 -95 0 0 80 0 80
95 0 95 0 0 885 0 885 110 0 c110 0 110 0 110 -24 0 -57 -4 -56 209 -56 l196
1 348 343 347 343 -2 194 -3 194 -52 3 c-49 3 -53 5 -53 27 l0 25 1173 2 1172
3 0 970 0 970 -705 3 -706 2 -54 55 c-53 54 -80 68 -80 42 0 -7 25 -37 55 -67
l55 -54 0 -88 0 -88 -43 0 -42 0 -453 -453 -452 -453 2 -174 3 -175 63 -3 62
-3 0 -52 0 -52 155 4 155 3 0 -176 0 -176 -135 0 -135 0 0 123 c0 68 -3 126
-6 130 -3 3 -12 3 -20 0 -11 -4 -14 -32 -14 -129 l0 -124 -39 0 c-44 0 -51
-10 -51 -74 0 -55 11 -64 65 -56 l45 7 0 -171 0 -171 -337 -337 -338 -336
-160 3 c-88 2 -165 4 -172 4 -6 1 -14 19 -18 41 l-7 40 -123 0 -124 0 -3 38
-3 37 -105 0 c-98 0 -105 -1 -105 -20 0 -19 6 -20 88 -17 l87 3 0 -905 0 -906
-490 0 -490 0 0 215 c0 208 -1 215 -20 215 -17 0 -20 -7 -20 -40 l0 -40 -204
0 c-111 0 -231 3 -265 6 l-61 7 0 253 0 254 265 0 265 0 0 -180 c0 -173 1
-180 20 -180 20 0 20 7 20 413 0 404 0 414 -20 432 -21 19 -23 17 -259 -219
l-237 -237 -42 2 c-42 3 -45 1 -160 -114 l-117 -117 -73 73 -72 72 93 93 c51
50 97 92 102 92 6 0 11 49 13 118 l2 117 291 291 c268 268 290 293 280 313
-11 20 -18 21 -217 21 -190 0 -205 -1 -202 -17 3 -16 21 -18 193 -21 l189 -2
-264 -265 c-146 -146 -268 -265 -273 -265 -4 0 -6 118 -5 262 l3 262 25 6 c14
3 26 14 28 23 3 16 -21 17 -360 15 l-363 -3 -3 -407 -2 -408 -160 0 -160 0 0
410 0 410 -415 0 -415 0 0 -25 0 -25 -240 0 -240 0 0 195 0 195 239 0 240 0 3
-27 3 -28 410 0 410 0 3 123 c2 117 2 122 -18 122 -19 0 -20 -6 -20 -105 l0
-105 -375 0 -375 0 0 210 0 210 375 0 375 0 0 -64 c0 -44 5 -67 15 -76 12 -10
16 -10 20 1 3 8 4 201 3 429 -3 361 -5 415 -18 415 -13 0 -15 -45 -18 -335
l-2 -335 -375 0 -375 0 0 483 0 482 375 0 374 0 3 -92 c2 -75 6 -93 18 -93 13
0 15 44 18 328 2 322 2 327 -18 327 -19 0 -20 -6 -20 -215 l0 -215 -375 0
-375 0 0 365 0 365 375 0 374 0 3 -102 c3 -89 5 -103 21 -106 16 -3 17 16 17
297 0 294 0 301 -20 301 -19 0 -20 -7 -20 -180 l0 -180 -375 0 -375 0 0 590 0
590 375 0 375 0 0 -350 c0 -344 0 -350 20 -350 20 0 20 5 18 398 -3 345 -5
397 -18 397 -9 0 -16 -11 -18 -27 l-3 -28 -375 0 -374 0 0 360 0 360 375 0
375 0 0 -283 c0 -156 3 -286 6 -290 3 -3 12 -3 20 0 10 4 14 23 14 69 l0 63
92 3 c79 3 93 6 96 21 3 15 -6 17 -92 17 l-96 0 -2 283 c-3 243 -5 282 -18
282 -11 0 -16 -15 -18 -62 l-3 -63 -374 0 -375 0 0 240 0 240 375 0 374 0 3
-122 c3 -108 5 -123 21 -126 15 -3 17 8 17 122 l0 126 478 0 477 0 -3 -460 -2
-460 -326 0 c-305 0 -325 -1 -322 -17 3 -17 30 -18 388 -18 336 0 385 2 385
15 0 10 -13 17 -40 20 l-40 5 0 455 0 455 298 3 297 2 0 -460 0 -460 -216 0
c-200 0 -215 -1 -212 -17 3 -17 28 -18 341 -21 332 -2 337 -2 337 18 0 19 -6
20 -105 20 l-105 0 0 460 0 460 463 0 462 0 0 -460 0 -460 -297 0 c-291 0
-298 0 -298 -20 0 -20 7 -20 720 -20 713 0 720 0 720 20 0 20 -7 20 -400 20
l-400 0 0 460 0 460 485 0 485 0 0 -460 0 -460 -40 0 c-33 0 -40 -3 -40 -20 0
-18 7 -20 65 -20 52 0 67 3 72 17 4 9 1 19 -5 21 -9 3 -12 124 -12 483 l0 479
-2213 0 c-1218 0 -2217 -3 -2220 -7z m6633 -2392 c0 -129 4 -192 11 -197 24
-14 29 28 27 204 l-3 182 233 0 232 0 0 -375 0 -375 -229 0 c-220 0 -229 1
-234 20 -3 11 -12 20 -21 20 -14 0 -16 -28 -16 -246 0 -228 1 -245 18 -242 15
3 17 22 19 208 l2 205 230 3 231 2 0 -265 0 -265 -250 0 -250 0 0 -145 c0 -80
4 -145 8 -145 25 0 32 30 32 140 l0 117 159 2 c88 1 191 -1 230 -5 l71 -7 0
-258 0 -259 -232 0 -233 0 0 92 c0 76 -3 93 -15 93 -12 0 -16 -18 -18 -92 l-3
-93 -704 0 -705 0 -2 613 -3 612 55 58 54 57 653 0 653 0 0 -46 c0 -38 3 -45
18 -42 14 3 18 16 20 66 l3 62 -451 0 -450 0 0 245 0 245 430 0 430 0 0 -189z
m-900 -156 l0 -145 -182 0 -183 0 145 145 c135 135 147 145 182 145 l38 0 0
-145z m-550 -735 l0 -400 -134 0 -135 0 -3 48 -3 47 -62 3 -63 3 0 152 0 152
197 197 c109 109 199 198 200 198 2 0 3 -180 3 -400z m-4400 -2180 l0 -390
-375 0 -375 0 0 390 0 390 375 0 375 0 0 -390z m1000 0 l0 -390 -300 0 -300 0
0 390 0 390 300 0 300 0 0 -390z m770 -325 l0 -205 -205 0 c-113 0 -205 3
-205 7 0 10 393 403 402 403 5 0 8 -92 8 -205z m0 -1195 l0 -410 -265 0 -265
0 0 410 0 410 265 0 265 0 0 -410z m828 5 c2 -22 1 -91 -3 -152 l-7 -113 -233
0 c-258 0 -245 3 -245 -67 0 -27 4 -34 18 -31 11 2 18 14 20 36 l3 32 245 0
246 0 -4 70 -3 70 80 0 80 0 -3 -130 -3 -130 -323 0 c-317 0 -346 -3 -346 -32
0 -4 27 -8 60 -8 l60 0 0 -215 c0 -208 1 -215 20 -215 19 0 20 7 20 215 l0
215 255 0 255 0 0 -325 0 -325 -255 0 -255 0 0 55 c0 49 -2 55 -20 55 -20 0
-20 -5 -18 -227 3 -208 5 -228 21 -231 16 -3 17 10 17 156 l0 160 208 1 c114
1 230 -2 257 -5 l50 -6 0 -289 0 -289 -257 0 -257 0 -3 92 c-3 79 -6 93 -20
96 -16 3 -18 -6 -18 -92 l0 -96 -125 0 -124 0 -3 87 c-3 74 -6 88 -20 91 -16
3 -18 -6 -18 -87 l0 -91 -355 0 -355 0 0 295 0 295 355 0 355 0 0 -166 c0
-152 1 -165 18 -162 16 3 17 24 20 246 2 228 1 243 -15 240 -15 -3 -19 -15
-21 -66 l-3 -62 -352 2 -352 3 -3 323 -2 322 355 0 355 0 0 -220 c0 -213 1
-220 20 -220 19 0 20 7 20 219 0 210 1 219 20 224 13 3 18 10 14 21 -5 13 -24
16 -110 16 l-104 0 0 230 0 230 393 -2 392 -3 3 -40z"/>
<path d="M5270 9389 c0 -195 1 -210 18 -207 15 3 17 21 20 191 l2 187 355 0
354 0 1 -460 0 -460 -355 0 -355 0 -2 218 c-3 185 -5 217 -18 217 -13 0 -15
-57 -18 -445 -1 -245 0 -451 3 -459 4 -11 8 -11 20 -1 13 11 15 44 13 222 l-3
208 305 0 c168 0 329 3 358 6 l52 7 0 -457 c0 -439 -1 -456 -19 -456 -21 0
-45 -23 -34 -33 3 -4 20 -7 38 -7 23 0 41 -11 75 -45 40 -41 80 -59 80 -36 0
5 -25 35 -55 67 l-55 59 0 947 0 948 -390 0 -390 0 0 -211z"/>
<path d="M2342 8093 c3 -230 5 -268 18 -268 13 0 15 35 18 248 l2 247 40 0
c33 0 40 3 40 20 0 18 -7 20 -60 20 l-60 0 2 -267z"/>
<path d="M2577 8353 c-14 -14 -6 -32 16 -35 22 -3 22 -3 27 -248 l5 -245 753
-3 752 -2 -2 -572 -3 -573 -159 4 -158 3 -274 -273 -274 -274 0 -102 0 -103
-440 0 -440 0 0 645 0 645 -110 0 -110 0 0 240 0 240 -227 -2 -228 -3 -3 -379
c-2 -371 1 -418 29 -400 5 3 9 171 9 375 l0 369 190 0 190 0 0 -505 0 -505
-190 0 -190 0 0 79 c0 44 -4 82 -9 85 -28 18 -31 -29 -29 -390 3 -342 4 -369
21 -372 16 -3 17 16 17 282 l0 286 190 0 190 0 0 -450 0 -450 -190 0 -190 0 0
111 c0 100 -2 110 -17 107 -17 -3 -18 -38 -21 -540 -2 -468 0 -537 13 -542 8
-3 304 -4 657 -3 603 2 643 3 646 20 3 14 -4 17 -42 17 l-46 0 0 395 0 395
253 0 c138 0 276 -3 305 -6 l52 -7 0 -239 0 -239 -137 2 -138 2 -3 -151 -3
-151 -57 -3 c-43 -2 -57 -7 -57 -18 0 -12 15 -15 75 -15 l75 0 3 152 3 152
137 3 137 3 3 261 c2 202 -1 264 -10 272 -7 6 -70 12 -140 13 l-127 3 -3 198
-3 198 266 266 265 265 150 -3 149 -3 3 -57 3 -58 429 0 430 0 0 115 c0 108
-1 115 -20 115 -19 0 -20 -7 -20 -95 l0 -95 -395 0 -395 0 0 180 0 180 143 0
c163 0 436 10 455 16 7 2 10 8 7 14 -4 6 -115 10 -306 10 l-299 0 0 566 c0
533 -1 565 -17 562 -16 -3 -18 -18 -21 -116 l-3 -112 -339 0 -340 0 0 230 0
230 46 0 c38 0 45 3 42 18 -3 15 -24 17 -236 20 -227 2 -232 2 -232 -18 0 -19
6 -20 170 -20 l170 0 0 -230 0 -230 -372 0 -373 0 2 227 3 228 145 3 c137 2
145 4 145 22 0 19 -7 20 -183 20 -101 0 -187 -3 -190 -7z m-235 -1810 l3 -648
458 -3 457 -2 0 -85 0 -85 -550 0 -550 0 0 735 0 735 90 0 90 0 2 -647z m548
-1258 l0 -395 -575 0 -575 0 0 395 0 395 575 0 575 0 0 -395z"/>
<path d="M3630 8340 c0 -19 6 -20 245 -20 l244 0 3 -62 c2 -48 7 -63 18 -63
11 0 16 15 18 63 l3 62 394 0 395 0 0 -465 c0 -459 0 -465 20 -465 20 0 20 5
18 483 l-3 482 -677 3 c-673 2 -678 2 -678 -18z"/>
<path d="M5275 8068 c-3 -7 -4 -132 -3 -278 3 -228 5 -265 18 -265 11 0 16 15
18 63 l3 62 272 0 272 0 -206 -206 -205 -205 -55 0 c-30 -1 -60 0 -66 0 -9 1
-13 25 -13 84 0 84 -9 115 -29 103 -7 -5 -11 -48 -11 -119 l0 -113 48 -47 c47
-46 72 -58 72 -35 0 7 -17 29 -37 50 l-37 38 75 0 74 0 75 78 c41 42 134 138
207 212 97 99 134 144 139 168 l7 32 -292 0 -291 0 -2 192 c-2 142 -6 192 -15
196 -7 2 -15 -2 -18 -10z"/>
<path d="M4950 7125 l0 -165 -36 0 c-28 0 -35 -3 -32 -17 2 -12 14 -19 36 -21
28 -3 32 -7 32 -33 0 -22 5 -29 20 -29 19 0 20 7 20 215 0 208 -1 215 -20 215
-19 0 -20 -7 -20 -165z"/>
<path d="M4095 5790 c-159 -159 -197 -202 -187 -212 10 -10 53 28 212 187 110
110 199 204 197 209 -2 5 -8 11 -13 13 -5 2 -99 -87 -209 -197z"/>
<path d="M4400 5415 c-533 -533 -564 -567 -546 -580 17 -13 83 -15 401 -15
l380 0 183 183 182 182 0 398 c0 371 -1 397 -17 397 -10 0 -268 -250 -583
-565z m393 -387 l-168 -168 -365 0 -365 0 530 530 530 530 3 -362 2 -363 -167
-167z"/>
<path d="M3383 4347 c-112 -112 -203 -208 -203 -213 0 -5 13 -21 29 -37 l29
-27 179 0 c180 0 225 7 185 29 -13 7 -84 11 -186 11 l-166 0 0 27 c0 21 35 62
172 200 188 189 173 180 286 167 l52 -7 0 -193 c0 -192 0 -193 -22 -196 -13
-2 -24 -11 -26 -20 -3 -15 4 -18 42 -18 l46 0 0 214 0 215 27 3 c17 2 29 10
31 21 3 15 -6 17 -85 17 -48 0 -110 3 -138 6 l-50 6 -202 -205z"/>
</g>
</svg>
